<?xml version="1.0" standalone="no"?>
<!DOCTYPE svg PUBLIC "-//W3C//DTD SVG 20010904//EN"
 "http://www.w3.org/TR/2001/REC-SVG-20010904/DTD/svg10.dtd">
<svg version="1.0" xmlns="http://www.w3.org/2000/svg"
 width="1167.000000pt" height="1288.000000pt" viewBox="0 0 1167.000000 1288.000000"
 preserveAspectRatio="xMidYMid meet">

<g transform="translate(0.000000,1288.000000) scale(0.100000,-0.100000)"
fill="#000000" stroke="none">
<path d="M1544 12519 c-6 -11 -4 -7670 2 -7714 3 -22 12 -54 20 -71 24 -53 42
-154 49 -269 6 -110 19 -175 35 -175 15 0 31 -63 37 -145 5 -75 31 -150 55
-166 5 -4 16 -45 23 -93 10 -68 19 -96 42 -129 22 -30 34 -63 43 -114 6 -40
18 -77 26 -84 21 -17 44 -64 44 -89 0 -25 37 -100 49 -100 9 0 26 -38 36 -85
4 -16 22 -50 41 -76 19 -26 34 -54 34 -63 0 -21 17 -53 41 -80 10 -10 26 -40
35 -65 9 -25 27 -55 39 -67 13 -12 29 -38 36 -58 7 -20 28 -52 45 -71 18 -20
35 -47 38 -60 4 -14 18 -35 32 -48 14 -12 38 -43 54 -69 17 -27 34 -48 38 -48
5 0 21 -25 37 -55 15 -31 36 -60 47 -66 11 -6 22 -19 26 -29 6 -16 83 -104
190 -216 23 -24 42 -48 42 -52 0 -11 206 -219 279 -282 101 -87 140 -122 187
-167 24 -24 47 -43 52 -43 4 0 27 -18 51 -40 23 -22 48 -40 55 -40 7 0 23 -11
36 -25 13 -14 43 -37 66 -50 24 -14 49 -33 56 -43 7 -10 28 -24 46 -31 18 -8
37 -22 42 -31 5 -10 39 -32 75 -50 36 -17 65 -35 65 -39 0 -5 34 -25 75 -45
41 -20 75 -41 75 -45 0 -4 19 -14 43 -21 23 -8 57 -26 74 -42 18 -15 56 -34
85 -43 29 -8 60 -24 68 -35 8 -10 38 -24 65 -31 61 -14 89 -26 115 -51 23 -22
71 -38 111 -38 14 0 47 -15 73 -34 36 -25 65 -36 121 -45 44 -7 82 -20 96 -32
26 -22 80 -39 129 -39 37 0 125 -30 164 -55 15 -10 70 -19 156 -25 74 -6 139
-15 145 -20 21 -17 128 -38 260 -50 159 -14 1292 -8 1402 8 39 6 90 20 114 31
31 15 71 23 144 27 113 6 205 21 205 34 0 4 10 11 23 14 64 19 127 34 167 40
25 4 63 18 86 31 22 13 71 29 109 36 38 6 89 24 114 39 25 14 69 32 96 39 28
7 73 27 100 45 28 17 72 37 99 44 27 7 62 24 78 37 16 14 37 25 46 25 21 0 93
37 108 55 6 8 32 21 58 30 26 9 56 25 67 36 11 11 44 30 74 44 30 13 55 29 55
34 0 6 31 27 70 46 39 19 70 40 70 45 0 5 17 17 37 25 20 8 43 24 50 35 8 11
34 31 58 46 25 14 45 29 45 34 0 4 31 26 69 49 38 22 71 47 75 56 3 8 12 15
20 15 7 0 30 18 50 40 20 22 39 40 42 40 4 0 37 31 74 69 37 37 78 75 90 84
38 27 167 154 186 183 10 16 27 35 38 43 10 8 26 23 35 34 9 11 49 53 88 93
40 40 73 77 73 82 0 4 18 24 40 45 22 20 40 43 40 51 0 8 14 30 30 48 17 18
30 37 30 44 0 6 20 32 44 58 25 26 48 57 52 69 4 12 17 29 29 39 12 10 33 39
45 65 12 26 28 52 35 58 7 5 26 36 43 67 17 31 39 65 50 76 11 11 23 35 27 53
4 18 22 49 40 68 20 21 35 49 39 72 3 21 17 50 30 66 26 31 51 83 60 125 3 15
17 39 31 54 14 15 27 44 31 72 4 26 15 60 26 77 10 16 21 38 24 48 4 9 10 17
14 17 4 0 13 29 20 66 7 36 18 70 24 77 23 24 48 90 57 152 9 65 25 110 46
133 6 7 15 34 18 60 18 131 46 237 68 253 8 6 10 20 28 228 7 86 19 151 40
213 l29 90 0 494 c0 468 -1 498 -21 571 -11 43 -24 83 -30 89 -5 6 -15 89 -22
185 -12 148 -17 180 -37 212 -26 44 -39 94 -49 198 -6 60 -14 84 -34 111 -18
23 -30 55 -36 99 -9 67 -38 149 -51 149 -12 0 -21 28 -30 91 -6 39 -19 73 -43
108 -23 33 -37 68 -42 100 -5 35 -15 59 -34 79 -19 19 -31 45 -35 77 -6 35
-17 57 -42 83 -22 23 -37 49 -40 73 -4 23 -18 49 -35 66 -16 15 -36 51 -44 78
-18 58 -24 69 -46 77 -8 3 -21 24 -28 46 -7 21 -29 56 -47 76 -19 20 -34 45
-34 55 0 19 -43 71 -59 71 -5 0 -12 14 -16 30 -4 17 -22 48 -41 68 -20 20 -42
53 -50 72 -8 19 -28 43 -44 52 -18 10 -30 25 -30 37 0 11 -14 31 -31 43 -17
13 -37 37 -46 55 -8 18 -22 35 -32 38 -9 2 -23 16 -31 29 -40 65 -357 388
-419 426 -22 14 -45 35 -52 48 -7 13 -27 30 -44 38 -17 8 -39 28 -48 44 -10
16 -28 32 -40 35 -12 3 -30 19 -39 36 -11 18 -28 32 -47 35 -16 4 -41 19 -55
35 -14 15 -46 37 -70 49 -25 11 -47 28 -50 38 -6 19 -45 42 -71 42 -7 0 -16 9
-20 19 -7 24 -38 44 -92 59 -24 7 -43 17 -43 22 0 17 -31 40 -69 50 -21 5 -52
23 -69 40 -17 16 -51 35 -75 41 -29 7 -52 21 -66 40 -17 22 -32 30 -73 35 -37
5 -59 15 -77 34 -31 32 -72 50 -111 50 -21 0 -36 9 -51 29 -22 30 -83 51 -148
51 -18 0 -40 12 -63 34 -30 29 -43 34 -104 41 -52 5 -75 12 -94 30 -29 28 -86
43 -191 51 -67 5 -78 8 -89 29 -16 30 -38 35 -189 45 -105 7 -127 12 -140 28
-24 28 -65 40 -174 50 -69 7 -104 14 -115 26 -16 15 -17 111 -17 1206 0 786
-3 1190 -10 1191 -50 5 -5328 2 -5331 -2z m887 -71 c-13 -4 -35 -5 -49 -1 -27
7 -26 7 8 13 45 8 72 0 41 -12z m620 15 c33 -7 33 -7 9 -14 -34 -10 -100 -10
-130 -1 -26 7 -27 7 76 20 6 1 27 -1 45 -5z m-1074 -9 c-3 -3 -12 -4 -19 -1
-8 3 -5 6 6 6 11 1 17 -2 13 -5z m646 -1 c-7 -2 -19 -2 -25 0 -7 3 -2 5 12 5
14 0 19 -2 13 -5z m134 1 c-3 -3 -12 -4 -19 -1 -8 3 -5 6 6 6 11 1 17 -2 13
-5z m532 -5 c-16 -6 -35 -6 -50 0 -20 8 -16 10 26 10 43 -1 46 -2 24 -10z
m160 0 c-16 -6 -35 -6 -50 0 -20 8 -16 10 26 10 43 -1 46 -2 24 -10z m391 1
c-34 -11 -180 -11 -205 0 -13 5 27 8 105 8 77 0 115 -3 100 -8z m-866 -36 c37
-14 8 -80 -31 -72 -25 5 -30 48 -7 65 21 15 18 15 38 7z m707 -4 c22 -12 24
-29 6 -54 -10 -13 -29 -19 -67 -21 -54 -3 -58 -5 -93 -58 -7 -11 -29 -21 -53
-24 -81 -11 -114 40 -49 78 19 11 37 29 40 39 7 21 32 29 95 31 25 0 56 5 70
9 14 4 26 8 28 9 2 1 12 -4 23 -9z m-1411 -10 c11 -6 22 -26 25 -48 10 -62 23
-84 48 -81 31 3 97 -28 97 -46 0 -8 -10 -25 -21 -36 -17 -17 -29 -20 -62 -16
-54 7 -72 27 -70 80 2 46 -7 63 -49 90 -53 33 -23 86 32 57z m201 -18 c-19
-35 2 -47 63 -36 58 11 62 9 24 -10 -13 -6 -30 -26 -38 -43 -12 -25 -21 -33
-42 -33 -27 0 -28 1 -28 58 0 32 5 63 12 70 17 17 20 15 9 -6z m347 9 c8 -5
12 -17 10 -27 -4 -25 -56 -32 -64 -10 -14 36 20 59 54 37z m330 -21 c9 -16 29
-35 44 -41 14 -6 29 -22 32 -35 4 -15 19 -29 41 -38 40 -17 53 -39 34 -62 -15
-18 -49 -15 -59 6 -21 47 -30 55 -56 60 -23 4 -30 11 -32 33 -3 22 -12 32 -38
43 -26 11 -34 20 -34 39 0 38 45 35 68 -5z m-1363 -20 c-3 -5 -21 -10 -38 -9
-31 1 -31 1 -7 9 36 11 52 11 45 0z m2539 -32 c8 -14 7 -21 -6 -34 -21 -21
-68 -11 -68 14 0 41 52 55 74 20z m-1653 -4 c18 -22 1 -46 -39 -56 -31 -8 -32
-10 -32 -68 0 -40 -5 -64 -16 -74 -36 -36 -64 -10 -64 59 0 58 12 75 52 75 26
0 28 3 28 40 0 37 2 40 29 40 16 0 34 -7 42 -16z m459 -69 c5 -3 12 -30 16
-61 5 -43 3 -59 -9 -71 -20 -21 -48 -9 -72 30 -18 29 -26 32 -80 37 -56 5 -60
7 -60 30 0 37 35 49 123 44 41 -2 78 -6 82 -9z m-1314 -87 c-21 -62 -40 -73
-70 -42 -22 21 -4 53 35 61 16 3 29 10 29 15 0 5 4 7 9 4 5 -3 4 -20 -3 -38z
m388 -10 c13 -22 -10 -50 -38 -46 -27 4 -60 66 -45 84 8 10 17 9 41 -4 17 -10
36 -25 42 -34z m706 -36 c0 -52 -3 -59 -37 -94 -21 -20 -46 -46 -56 -58 -14
-16 -22 -18 -37 -10 -10 5 -21 19 -25 30 -3 11 -19 27 -35 37 -36 21 -43 38
-29 65 10 18 18 20 60 15 34 -4 53 -2 61 7 9 10 17 10 29 3 9 -6 24 -7 33 -4
21 8 21 46 -1 54 -15 6 -14 7 3 13 29 11 34 3 34 -58z m-1270 -113 c0 -4 -7
-6 -15 -3 -8 4 -15 10 -15 15 0 4 7 6 15 3 8 -4 15 -10 15 -15z m320 6 c18
-21 -3 -70 -26 -61 -9 3 -20 6 -25 6 -14 0 -11 58 4 63 22 9 34 7 47 -8z m152
-2 c13 -11 18 -30 18 -64 0 -43 4 -51 35 -75 19 -14 35 -34 35 -43 0 -31 22
-41 92 -41 l68 0 0 36 c0 31 -4 37 -35 50 -27 11 -35 20 -35 39 0 48 61 44 68
-4 2 -15 16 -27 43 -38 34 -13 40 -19 37 -42 -2 -20 -11 -29 -38 -37 -21 -7
-36 -19 -39 -30 -6 -34 -32 -54 -70 -54 -44 0 -78 22 -83 52 -3 20 -12 24 -71
34 -38 6 -73 17 -78 25 -5 8 -9 51 -9 96 0 61 4 86 16 97 19 20 23 20 46 -1z
m407 -19 c8 -18 27 -37 45 -45 35 -16 45 -49 22 -68 -22 -18 -53 -4 -65 29 -6
19 -22 34 -45 44 -38 16 -47 41 -24 64 21 21 52 9 67 -24z m-726 19 c-7 -2
-19 -2 -25 0 -7 3 -2 5 12 5 14 0 19 -2 13 -5z m-8 -51 c22 5 25 2 25 -24 0
-22 -14 -43 -61 -89 -53 -52 -65 -59 -100 -59 -39 0 -39 0 -39 39 0 30 4 40
20 44 11 3 25 19 31 36 7 19 20 33 34 37 13 3 26 13 29 21 5 12 9 13 21 3 8
-7 26 -10 40 -8z m1283 -124 c4 -34 -27 -54 -58 -38 -39 21 -16 73 30 68 19
-2 26 -10 28 -30z m-1195 -135 c3 -5 -8 -8 -23 -8 -15 0 -26 3 -23 8 2 4 13 7
23 7 10 0 21 -3 23 -7z m248 -9 c17 -21 0 -48 -34 -52 -21 -3 -28 2 -33 22 -3
14 -3 30 1 35 10 16 51 13 66 -5z m-238 -49 c25 4 39 0 62 -19 25 -20 28 -28
19 -43 -9 -14 -26 -19 -78 -21 -55 -2 -66 -6 -66 -20 0 -27 -29 -62 -50 -62
-11 0 -24 9 -30 21 -15 26 10 56 49 61 24 3 26 6 25 50 0 42 2 46 18 37 10 -5
33 -7 51 -4z m942 -21 c14 -14 14 -19 2 -38 -19 -28 -53 -32 -66 -8 -7 14 -6
25 5 40 18 26 37 28 59 6z m1922 -355 c14 -13 15 -208 7 -2374 -15 -3928 -15
-3895 40 -3989 14 -25 29 -67 32 -93 7 -60 30 -122 54 -148 10 -11 24 -42 31
-70 7 -29 25 -65 45 -86 17 -20 35 -51 39 -68 3 -16 17 -41 31 -53 13 -13 33
-42 43 -65 11 -22 28 -44 39 -48 12 -3 24 -15 27 -26 7 -21 165 -181 249 -254
26 -22 59 -52 74 -66 15 -15 38 -30 52 -34 23 -7 79 -44 107 -71 7 -7 27 -15
44 -19 18 -4 51 -22 74 -40 28 -21 59 -34 90 -38 27 -4 62 -18 80 -32 25 -18
62 -29 154 -45 115 -19 143 -27 200 -54 31 -14 444 -14 463 0 18 15 118 40
213 54 44 6 94 13 111 16 17 2 42 13 54 24 21 18 79 40 107 40 14 0 80 35 103
55 8 7 33 18 55 25 22 7 51 22 65 35 14 12 46 34 73 49 26 15 47 31 47 36 0 5
24 22 54 39 30 17 61 42 70 56 9 14 23 25 30 25 8 0 28 18 46 39 17 22 39 42
48 45 10 4 24 22 30 41 7 18 21 37 32 40 10 3 28 25 40 48 12 23 33 52 46 65
13 13 34 42 45 64 12 23 32 50 44 60 13 10 26 35 30 55 4 21 22 58 40 83 19
26 36 64 40 90 4 25 18 62 32 83 23 36 33 77 63 247 6 36 19 81 28 100 14 29
17 71 17 261 0 160 -4 233 -12 250 -18 35 -43 138 -43 179 0 51 -26 140 -50
172 -11 15 -25 51 -31 80 -11 49 -46 119 -67 132 -6 3 -13 22 -16 41 -4 20
-20 50 -36 69 -16 18 -38 54 -49 79 -11 26 -27 47 -34 47 -8 0 -20 14 -27 30
-11 26 -89 108 -310 324 -19 19 -47 38 -63 42 -15 3 -32 15 -38 26 -6 11 -39
33 -75 49 -35 16 -68 38 -74 48 -6 12 -25 23 -48 26 -61 11 -72 15 -106 45
-25 22 -48 31 -104 38 -43 6 -90 20 -115 35 -57 33 -85 37 -278 46 -177 8
-203 15 -225 62 -30 66 -34 104 -34 364 0 229 2 274 17 306 27 62 57 71 199
58 65 -5 187 -14 269 -18 159 -9 180 -14 207 -42 10 -10 35 -21 55 -24 114
-16 161 -28 183 -46 34 -27 56 -35 121 -47 37 -7 65 -19 81 -35 14 -14 53 -33
87 -43 47 -13 65 -23 71 -40 5 -13 21 -25 40 -29 44 -10 89 -34 100 -55 5 -9
26 -24 47 -33 21 -8 48 -29 61 -46 12 -17 30 -31 39 -31 8 0 32 -15 53 -32 20
-18 47 -40 59 -48 13 -8 46 -36 73 -62 28 -27 54 -48 58 -48 4 0 12 -11 18
-25 6 -14 18 -25 26 -25 8 0 29 -20 47 -45 18 -24 40 -47 51 -50 10 -4 18 -12
18 -19 0 -7 20 -35 45 -62 25 -27 48 -58 51 -69 4 -11 22 -35 40 -53 19 -18
34 -37 34 -42 0 -20 24 -60 39 -65 18 -6 61 -76 61 -100 0 -8 11 -25 25 -37
14 -12 31 -42 37 -65 6 -24 23 -57 39 -74 19 -20 34 -52 42 -89 8 -31 23 -67
34 -79 22 -24 37 -66 53 -153 6 -32 17 -64 24 -71 26 -26 35 -57 42 -138 3
-46 17 -124 31 -174 13 -49 29 -109 34 -133 15 -62 8 -640 -8 -650 -18 -11
-44 -116 -54 -217 -10 -98 -25 -165 -38 -165 -13 0 -30 -46 -37 -102 -7 -53
-37 -128 -53 -128 -8 0 -24 -48 -36 -102 -3 -15 -19 -42 -35 -60 -16 -18 -33
-48 -36 -68 -8 -44 -22 -71 -46 -88 -10 -7 -27 -32 -38 -55 -10 -23 -31 -53
-45 -66 -14 -13 -25 -31 -25 -41 0 -10 -18 -38 -40 -62 -21 -23 -44 -55 -50
-69 -6 -15 -22 -32 -35 -39 -13 -7 -31 -28 -41 -46 -10 -19 -24 -34 -31 -34
-6 0 -26 -20 -43 -44 -17 -24 -42 -48 -56 -55 -13 -6 -24 -17 -24 -25 0 -8
-20 -29 -45 -46 -25 -17 -45 -37 -45 -44 0 -8 -12 -19 -27 -25 -16 -7 -39 -27
-53 -46 -14 -18 -35 -36 -46 -39 -12 -3 -32 -17 -45 -31 -13 -14 -42 -34 -64
-45 -22 -10 -55 -33 -73 -49 -18 -17 -40 -31 -49 -31 -9 0 -36 -16 -60 -36
-24 -20 -63 -41 -85 -46 -23 -5 -52 -19 -65 -32 -24 -25 -49 -36 -120 -55 -24
-7 -52 -21 -62 -32 -13 -14 -42 -24 -92 -32 -43 -6 -96 -22 -124 -38 -60 -32
-77 -35 -220 -49 -60 -6 -114 -15 -120 -19 -23 -19 -147 -39 -265 -45 -213 -9
-428 9 -505 45 -11 5 -81 16 -155 24 -112 12 -145 19 -192 43 -31 16 -79 33
-105 36 -67 10 -110 25 -116 40 -3 7 -35 21 -71 31 -38 11 -78 29 -97 46 -17
15 -53 33 -80 39 -34 8 -55 21 -69 40 -13 18 -35 31 -63 38 -23 6 -54 23 -67
38 -14 14 -42 35 -62 45 -21 10 -42 27 -47 38 -6 10 -24 24 -41 31 -17 7 -49
30 -73 51 -23 22 -45 39 -49 39 -3 0 -27 20 -53 44 -26 24 -55 50 -64 58 -27
24 -175 189 -185 207 -5 9 -25 32 -43 51 -18 19 -38 49 -43 66 -6 17 -21 36
-33 41 -12 6 -35 35 -51 66 -15 31 -34 58 -41 61 -8 3 -19 23 -25 46 -6 22
-26 56 -45 76 -24 24 -36 48 -41 79 -3 24 -15 55 -26 67 -34 38 -45 61 -52
103 -8 48 -26 95 -36 95 -13 0 -30 52 -46 143 -9 51 -24 103 -35 118 -21 30
-32 102 -49 309 -6 74 -15 164 -21 200 -10 67 -6 371 11 940 6 179 12 1388 13
2688 2 1299 7 2366 11 2370 23 23 735 24 763 1z"/>
<path d="M3173 12304 c-8 -21 13 -42 28 -27 13 13 5 43 -11 43 -6 0 -13 -7
-17 -16z"/>
<path d="M2944 12225 c-10 -24 5 -35 50 -35 48 0 72 16 55 37 -16 18 -98 17
-105 -2z"/>
<path d="M2305 11910 c-4 -7 -3 -16 3 -22 14 -14 45 -2 40 15 -6 16 -34 21
-43 7z"/>
</g>
</svg>
